<svg width="327" height="74" viewBox="0 0 327 74" fill="none" xmlns="http://www.w3.org/2000/svg">
<path d="M325.807 66.186C326.278 66.2175 326.121 65.7757 326.184 65.6811C325.367 65.7757 325.807 66.3122 325.807 66.186Z" fill="#363634"/>
<path d="M317.844 67.2274L318.001 67.0381L316.81 67.5115L317.844 67.2274Z" fill="#363634"/>
<path d="M310.415 67.2274C311.104 68.0164 313.11 67.1012 314.427 67.3852L314.647 67.5746L315.242 66.9434C313.643 67.0065 311.543 67.4483 310.415 67.2274Z" fill="#363634"/>
<path d="M306.465 65.5233C306.716 65.8389 305.618 65.7757 307.374 65.618C307.28 65.5864 307.249 65.5548 307.217 65.5548C307.06 65.5548 306.841 65.5548 306.465 65.5233Z" fill="#363634"/>
<path d="M307.217 65.523C308 65.523 306.684 65.2712 307.217 65.523Z" fill="#363634"/>
<path d="M303.581 65.7126L304.615 65.4286C304.396 65.2393 303.487 65.2077 303.832 65.0815C302.766 65.2393 302.985 65.4286 303.581 65.7126Z" fill="#363634"/>
<path d="M302.609 66.2807L303.143 66.1544C303.049 66.0913 302.923 66.0598 302.609 66.2807Z" fill="#363634"/>
<path d="M304.27 65.9335L303.142 66.186C303.299 66.3122 303.299 66.5647 303.675 66.0913C303.581 66.3122 303.8 66.0913 304.27 65.9335Z" fill="#363634"/>
<path d="M304.929 66.0598C305.493 66.2176 306.245 66.3438 305.211 66.6278C307.186 66.5016 306.904 65.9335 304.929 66.0598Z" fill="#363634"/>
<path d="M310.038 68.0479L310.822 68.2688L311.48 68.0164C311.136 68.1426 309.976 67.7955 310.038 68.0479Z" fill="#363634"/>
<path d="M297.186 65.3024C297.123 65.4602 297.531 65.7442 297.625 65.9651L298.377 65.7757C297.969 65.6495 297.217 65.5548 297.186 65.3024Z" fill="#363634"/>
<path d="M297.593 65.9651L296.465 66.2491C297.468 66.2807 297.656 66.1544 297.593 65.9651Z" fill="#363634"/>
<path d="M302.421 67.1643L304.302 66.5647L302.076 67.1643H302.421Z" fill="#363634"/>
<path d="M292.828 65.2708L293.455 64.8921L292.327 65.4917L292.828 65.2708Z" fill="#363634"/>
<path d="M289.944 65.3655C290.414 65.0499 289.286 64.829 289.787 64.6081C289.004 64.6712 288.345 64.9552 287.719 65.1761C288.377 65.0499 289.066 65.0815 289.944 65.3655Z" fill="#363634"/>
<path d="M286.715 65.5548C287.029 65.4917 287.374 65.3339 287.718 65.2077C287.374 65.2708 287.06 65.3655 286.715 65.5548Z" fill="#363634"/>
<path d="M294.521 66.1544C294.427 66.0598 294.27 65.7757 293.612 65.6811L294.051 66.1544C294.207 66.1544 294.364 66.1544 294.521 66.1544Z" fill="#363634"/>
<path d="M294.082 66.186C293.581 66.1544 293.236 66.1544 293.11 66.1544C293.236 66.1544 293.518 66.1544 294.082 66.186Z" fill="#363634"/>
<path d="M294.614 66.186C294.583 66.186 294.552 66.186 294.49 66.186C294.552 66.2173 294.583 66.2173 294.614 66.186Z" fill="#363634"/>
<path d="M299.443 66.7225C298.784 66.975 297.374 67.259 298.722 67.6692C299.223 67.3537 298.439 67.1328 299.443 66.7225Z" fill="#363634"/>
<path d="M295.179 66.7541L296.402 66.8487C296.371 66.7225 296.151 66.5332 296.496 66.4069L295.179 66.7541Z" fill="#363634"/>
<path d="M294.584 66.9119L295.18 66.7541L294.741 66.7225L294.584 66.9119Z" fill="#363634"/>
<path d="M288.784 65.9967C288.251 66.2176 287.687 66.2176 287.029 66.2491C287.718 66.3438 288.439 66.4069 289.129 66.3754C289.223 66.2491 289.537 65.9651 288.784 65.9967Z" fill="#363634"/>
<path d="M291.355 66.1229C291.323 66.1229 291.261 66.1542 291.229 66.1542C291.323 66.1855 291.386 66.2168 291.355 66.1229Z" fill="#363634"/>
<path d="M280.696 66.2491C280.727 66.2804 280.759 66.3117 280.79 66.343C280.79 66.3117 280.79 66.2804 280.821 66.2491H280.696Z" fill="#363634"/>
<path d="M289.255 66.47C289.787 66.5647 290.101 66.4385 290.383 66.3122C290.007 66.3753 289.568 66.3753 289.129 66.4069C289.098 66.47 289.098 66.5016 289.255 66.47Z" fill="#363634"/>
<path d="M284.928 65.7757C285.211 65.8704 285.493 65.9651 285.838 66.0282C285.587 65.8704 285.054 65.6495 284.928 65.7757Z" fill="#363634"/>
<path d="M291.072 66.0277C291.103 66.0277 291.134 65.9963 291.134 65.9963C290.979 65.9022 291.01 65.9336 291.072 66.0277Z" fill="#363634"/>
<path d="M291.073 66.0282C290.791 66.0913 290.602 66.2176 290.383 66.3123C290.697 66.2807 290.979 66.2176 291.261 66.1545C291.167 66.1229 291.104 66.0598 291.073 66.0282Z" fill="#363634"/>
<path d="M278.753 69.2787C278.847 68.8369 280.226 68.4266 281.386 68.9C282.546 68.5844 281.794 67.1327 280.759 66.3438C280.728 66.5331 280.728 66.7225 279.537 66.9749C279.944 67.2274 282.201 67.543 281.167 67.9217C279.568 68.1426 279.881 67.7639 279.098 67.543C279.756 68.0795 277.091 68.3319 277.436 69.1525L278.816 68.8684C278.878 68.9631 278.377 69.1525 278.753 69.2787Z" fill="#363634"/>
<path d="M283.079 66.3754L283.581 66.3123C283.016 66.2491 282.609 66.0598 281.888 65.7126C281.073 65.9336 280.885 66.0913 280.853 66.2491L283.267 66.3123L283.079 66.3754Z" fill="#363634"/>
<path d="M285.775 66.3123C285.399 66.7856 284.208 66.975 284.929 67.5115C286.371 67.4799 285.932 67.1012 286.809 66.9119C284.49 67.0381 287.468 66.6594 285.806 66.3754C286.277 66.2807 286.684 66.2807 287.06 66.2491C286.653 66.186 286.245 66.1229 285.869 66.0282C285.9 66.0282 285.9 66.0598 285.932 66.0598C286.026 66.1229 286.057 66.1545 285.963 66.1229C285.963 66.1229 285.932 66.1229 285.9 66.1229C285.869 66.2176 285.806 66.2491 285.775 66.3123C285.085 66.2176 285.681 66.186 285.869 66.1229C285.869 66.0913 285.9 66.0913 285.9 66.0598L283.581 66.3123C284.051 66.3754 284.678 66.3754 285.775 66.3123Z" fill="#363634"/>
<path d="M297.499 68.7106C297.436 68.6791 297.436 68.6475 297.436 68.5844C297.248 68.6475 297.217 68.7106 297.499 68.7106Z" fill="#363634"/>
<path d="M296.527 68.4266C296.684 68.3635 296.841 68.1742 297.405 68.2057C297.875 68.3635 297.405 68.4266 297.436 68.5844C297.781 68.4582 298.596 68.2373 297.562 68.0164L297.405 68.0795C296.465 67.9217 295.273 67.3221 295.43 67.259C295.649 67.7008 295.9 67.9848 296.527 68.4266Z" fill="#363634"/>
<path d="M291.073 67.4799L289.129 67.7324L290.132 68.1426L290.07 67.8901C291.198 67.9848 290.947 67.6692 291.073 67.4799Z" fill="#363634"/>
<path d="M280.477 65.9967L280.728 65.4917L279.599 66.2176L280.477 65.9967Z" fill="#363634"/>
<path d="M277.939 66.0598L278.033 65.618L277.374 65.902L277.939 66.0598Z" fill="#363634"/>
<path d="M135.398 71.4878L134.833 71.614C135.084 71.5824 135.273 71.5509 135.398 71.4878Z" fill="#363634"/>
<path d="M139.535 71.5193L139.629 71.2984C139.441 71.4247 139.347 71.5193 139.535 71.5193Z" fill="#363634"/>
<path d="M215.9 66.1229C215.053 65.7126 214.144 65.0815 214.238 65.5864L214.489 66.0598C215.085 65.9651 215.523 66.0282 215.9 66.1229Z" fill="#363634"/>
<path d="M173.423 68.9947C173.517 69.0262 173.579 69.0894 173.673 69.1525C173.861 68.9947 174.081 68.8369 174.238 68.6791C173.987 68.7738 173.705 68.8685 173.423 68.9947Z" fill="#363634"/>
<path d="M172.827 70.9513L171.73 70.6357C171.981 70.7619 172.326 70.8566 172.827 70.9513Z" fill="#363634"/>
<path d="M112.795 71.9927L112.137 72.4661C113.171 72.4976 112.733 72.2452 112.795 71.9927Z" fill="#363634"/>
<path d="M252.075 66.2491C251.354 66.0598 250.79 65.9966 250.289 65.9651C251.135 66.2176 251.856 66.6594 252.075 66.2491Z" fill="#363634"/>
<path d="M137.028 66.4069C136.683 66.5016 136.526 66.5963 136.526 66.6909C136.903 66.6278 137.091 66.5332 137.028 66.4069Z" fill="#363634"/>
<path d="M248.22 65.9651C248.345 66.0282 248.471 66.0282 248.596 66.0913C249.129 65.9967 249.662 65.9335 250.289 65.9651C249.63 65.7442 248.909 65.618 248.22 65.9651Z" fill="#363634"/>
<path d="M30.9126 71.6138C30.8502 71.5824 30.7877 71.5824 30.7253 71.5509C30.6941 71.6138 30.7877 71.6138 30.9126 71.6138Z" fill="#363634"/>
<path d="M7.02612 66.754C7.24556 66.7225 7.65309 66.7225 7.99792 66.7225C7.84118 66.6909 7.55904 66.6909 7.02612 66.754Z" fill="#363634"/>
<path d="M267.781 65.8704C268.314 65.8389 267.875 65.8073 267.781 65.8704Z" fill="#363634"/>
<path d="M270.382 67.7639C270.257 67.827 270.195 67.8901 270.163 67.9848C270.226 67.8586 270.288 67.7955 270.382 67.7639Z" fill="#363634"/>
<path d="M242.859 68.9315C242.828 68.9315 242.828 68.9315 242.828 68.9315C242.983 69.0257 242.952 69.0257 242.859 68.9315Z" fill="#363634"/>
<path d="M268.596 66.0913C268.408 66.0282 268.157 65.9966 267.906 65.9335C268 65.9651 268.22 66.0282 268.596 66.0913Z" fill="#363634"/>
<path d="M268.471 65.8388C268.659 65.8703 268.815 65.8703 268.941 65.8703C269.003 65.8073 268.941 65.7758 268.471 65.8388Z" fill="#363634"/>
<path d="M267.029 65.902C267.342 65.902 267.624 65.902 267.906 65.9651C267.812 65.9336 267.75 65.902 267.781 65.902C267.624 65.8704 267.405 65.8704 267.029 65.902Z" fill="#363634"/>
<path d="M74.7696 70.3201C74.7383 70.3201 74.7069 70.2886 74.6442 70.2886C74.1428 70.4775 74.3622 70.446 74.7696 70.3201Z" fill="#363634"/>
<path d="M201.95 71.1087C201.981 71.1087 201.981 71.0773 202.012 71.0773C201.981 71.0773 201.95 71.0773 201.918 71.046L201.95 71.1087Z" fill="#363634"/>
<path d="M200.037 71.4562C200.852 70.8566 201.323 70.9197 201.95 71.046L201.323 69.6574L200.037 71.4562Z" fill="#363634"/>
<path d="M125.491 71.6456L126.839 72.0874C125.209 72.7817 124.018 72.5608 125.303 73.1604C125.491 71.6456 130.57 73.0026 130.758 71.5193L131.636 71.8349C131.385 71.8349 131.353 71.898 131.103 71.898C132.827 72.6239 132.388 70.8251 134.614 71.0144C135.397 71.1406 135.93 71.3615 135.397 71.5193L137.122 71.1406C137.623 71.1722 137.498 71.4247 136.996 71.3931L139.629 71.2669L139.598 71.2984C139.974 71.0775 140.821 70.6988 141.259 70.541C141.918 70.7619 140.915 70.6988 141.103 70.8882L142.576 70.5095C143.172 70.8882 141.949 71.2669 140.946 71.2353C142.325 72.7185 142.169 70.8566 145.115 71.7402L143.736 71.9296C144.614 72.7817 145.711 72.4661 147.278 73.0026C146.902 72.7185 144.144 71.6771 145.742 71.2984C146.181 71.4247 146.777 71.4562 147.623 71.1722C147.623 71.7087 148.47 71.5824 149.504 71.5509L149.441 72.2452C150.57 72.0558 150.476 71.6771 151.166 71.3615C152.419 71.4247 152.702 71.9927 152.984 72.4345C154.99 72.5607 151.573 71.5509 153.987 71.4247C155.68 71.7087 156.84 71.3931 158.846 70.9828C160.037 71.2353 158.626 71.4247 159.065 71.614L160.1 71.046C160.351 71.046 160.288 71.2353 160.225 71.33C161.103 71.1091 160.288 70.6357 161.667 70.4464C162.043 69.6574 164.489 71.5824 166.213 70.6988C166.62 70.8882 166.025 71.1406 166.15 71.3931C168.501 70.8251 168.156 70.9828 170.1 70.1939L171.73 70.6673C170.539 70.1308 172.075 69.4996 173.423 68.9947C172.984 68.7422 172.639 68.5213 172.388 68.3951L174.551 68.0164C174.802 68.1426 174.583 68.3635 174.238 68.6791C174.395 68.616 174.52 68.5529 174.645 68.5213C175.429 68.7738 175.022 69.184 174.457 69.5943C174.207 69.4681 173.924 69.3103 173.674 69.1525C173.141 69.5943 172.639 70.0677 172.764 70.4779C172.89 70.3832 173.172 70.3201 173.485 70.2886C173.36 70.4148 173.266 70.5095 173.329 70.5726C173.391 70.6357 173.611 70.4779 173.987 70.3201L174.489 71.1091L174.614 70.7935L177.435 71.2984C179.442 70.5095 181.197 69.3418 184.395 69.0262C183.611 69.5943 184.238 69.973 184.175 70.6673C183.298 69.9414 181.699 70.9828 180.037 70.8251C180.915 70.8882 180.727 71.2353 180.508 71.33L183.454 70.6673C183.392 71.2353 184.081 71.0775 184.865 71.33C184.269 70.2254 187.059 70.6041 188.282 70.257C188.345 70.6357 188.062 71.0144 186.589 70.9197C188.219 71.7402 188.689 69.6258 190.257 70.3201C189.912 70.3201 189.693 70.257 189.567 70.4464C190.414 70.1308 192.451 70.3832 191.981 70.6988H191.636C194.019 70.8251 198.878 70.6988 199.222 69.7521C199.254 69.8783 198.909 70.8882 198.752 71.0775L202.984 67.9217C202.608 68.7422 204.05 70.6357 202.075 71.1091C202.639 71.2353 203.329 71.3615 204.552 71.0775C204.175 70.9513 203.58 69.9099 204.113 69.8468C205.555 70.7304 205.116 70.3201 206.903 71.0775C206.338 70.9197 206.965 69.6258 207.875 69.689C207.718 69.8783 207.937 70.9513 207.624 71.0775L209.912 69.8468C209.348 70.0677 209.818 70.8882 210.32 71.2353C210.069 70.9828 212.295 71.2669 212.89 71.1406L211.918 70.8566C214.489 71.046 214.458 69.1209 216.997 69.184C216.683 69.4365 216.245 70.7619 217.53 70.9197C218.125 70.2886 220.163 67.8586 222.42 67.3852L222.859 67.7639L224.583 67.3537C223.517 68.3004 220.477 70.3201 218.815 71.1091C219.787 71.3931 219.097 71.5509 220.539 71.5193C221.041 71.8665 219.756 72.0243 219.317 72.0558L222.671 72.2767C222.514 71.5193 225.241 71.5193 225.116 70.9197L221.448 71.5509C221.292 70.8251 223.549 69.4365 225.931 69.5627C226.527 69.8468 225.492 70.8882 225.524 71.1406C225.837 70.8882 227.781 70.6673 228 70.8251L226.997 71.2353C228.314 71.5193 229.16 70.257 230.759 70.9513C231.323 71.0144 232.389 71.898 232.483 71.4562C231.574 70.6041 231.417 67.9848 232.013 67.3537C232.201 67.4168 234.897 68.1742 235.524 68.5844C236.433 69.2471 234.176 70.1623 234.928 70.7304C234.959 70.541 235.461 70.2886 235.68 70.1939C236.245 70.3517 235.43 70.8251 236.684 70.7304C236.903 69.973 239.223 70.7935 237.279 70.0992C238.502 69.8783 238.596 70.257 240.007 70.2254C239.536 69.7521 241.292 68.5844 242.514 68.3635C242.452 68.5529 242.702 68.8053 242.859 68.9316C245.367 68.9947 246.715 69.3418 249.066 69.3418C249.286 69.5312 250.414 69.7521 249.944 70.0677C250.289 69.9414 250.602 69.689 251.323 69.6574C252.734 70.3201 249.724 69.7521 250.79 70.541C250.884 70.0992 252.671 69.9414 253.674 69.6574C253.361 68.9947 251.292 69.5312 250.257 69.8152C250.257 68.8685 252.044 67.9217 254.489 67.4799C256.433 67.259 255.336 68.0795 255.681 67.9533C259.348 68.1111 258.784 66.3122 261.825 67.0065C263.016 67.6061 261.888 68.1742 262.138 68.616C260.54 68.8369 259.693 68.2373 258.627 68.2688L259.944 68.5529C259.442 68.7422 258.377 68.9 257.812 68.7422C258.815 69.2787 263.988 68.8369 266.809 69.3418C267.311 69.1525 268.189 68.9316 267.781 68.7107L266.903 68.8053C266.088 68.332 268.596 68.1426 267.468 67.9217C268.659 67.5746 270.007 67.0696 271.7 67.3221L272.013 67.9848C271.982 67.7955 270.916 67.5746 270.446 67.7955C271.135 67.4799 273.016 68.7107 273.8 67.827L272.609 67.3537C273.8 67.0065 275.305 66.2807 276.778 66.5016C276.088 65.8389 276.433 66.5647 275.367 65.8073C276.276 66.7856 271.543 65.7758 273.016 66.7856C271.919 65.8704 271.135 66.4069 269.693 65.618C269.725 65.8389 270.195 66.0598 268.941 65.9335C268.878 65.9967 268.753 66.0913 268.659 66.1229C268.627 66.1229 268.596 66.1229 268.565 66.0913C268.596 66.0913 268.596 66.1229 268.627 66.1229C268.565 66.1545 268.565 66.1545 268.659 66.1229C268.972 66.2176 269.192 66.3438 269.286 66.47C268.659 66.975 266.684 66.975 265.994 67.2274C265.242 67.1328 266.308 66.975 265.9 66.7225L264.928 67.1328C264.834 66.6278 262.953 66.3122 264.709 66.0282L263.142 65.9967C262.201 65.7126 260.947 65.618 260.132 65.8073C259.38 65.7126 258.251 66.3438 258.91 65.9651L256.433 66.2807L256.402 66.1545C253.956 66.0913 251.386 66.975 248.596 66.0913C247.781 66.2176 246.934 66.3754 245.555 66.2176L245.273 65.7758C244.207 65.9335 242.107 65.3339 241.637 65.8073C240.508 64.6397 236.527 65.5548 234.646 65.3655L234.583 65.9335C233.298 65.902 232.075 66.0598 230.508 66.2807L230.602 66.7856C229.223 67.1959 227.091 66.4385 224.928 66.47C225.085 66.2807 225.618 66.3438 226.025 66.4385C223.455 65.3339 220.571 67.259 218.219 66.4385C217.624 66.6278 217.216 66.5647 216.809 66.4385C216.871 66.4385 216.903 66.4385 216.966 66.4069C216.903 66.4069 216.809 66.4069 216.715 66.4069C216.464 66.3122 216.182 66.2176 215.9 66.1545C216.15 66.2807 216.37 66.3754 216.589 66.4069C216.15 66.4069 215.461 66.47 214.771 66.5963L214.489 66.0598C214.426 66.0598 214.395 66.0598 214.332 66.0598C213.674 65.8704 213.799 66.3122 214.144 66.7225C213.799 66.8172 213.486 66.9118 213.266 67.0381C212.734 66.186 211.511 67.3221 210.79 66.4069C210.351 66.8487 207.436 66.7541 207.059 67.6692C207.028 67.543 206.84 67.4799 207.216 67.4799C206.464 67.3852 205.712 67.259 205.053 67.543L204.74 66.8803L203.11 67.7955C202.106 67.3852 201.699 67.1328 202.702 66.6278C200.32 67.4168 200.79 66.9434 198.752 67.7324L198.846 67.2905C198.125 67.3221 196.965 67.8901 196.526 67.543C194.928 66.7225 188.533 67.4168 184.395 66.6594C185.21 67.9533 182.482 66.0913 182.294 67.0696C182.044 66.7541 181.479 66.5963 182.138 66.3438C180.037 66.5963 179.003 65.8073 177.529 66.6594C177.279 66.3438 177.968 66.2176 177.78 66.0282C177.623 66.0913 177.122 66.2807 176.902 66.1229C176.683 65.9335 177.216 65.8704 177.561 65.7442C175.398 65.8073 175.178 66.7225 175.022 67.6061C173.924 67.1959 173.391 67.259 172.576 67.827C172.2 67.543 171.573 67.2274 172.89 67.1328C172.138 67.1012 168.282 66.7225 168.188 67.4168C167.937 67.2274 167.122 67.3537 166.934 67.4483C165.241 67.4168 165.084 67.3537 163.423 67.4168L163.893 67.543C163.235 68.3951 162.514 67.7324 161.166 67.827L161.197 67.7324C158.125 67.1328 159.88 68.0164 156.84 67.3221L156.996 67.8586C156.714 68.9947 154.3 67.1959 152.545 67.6377L153.172 67.9533C152.2 68.332 150.476 66.4069 149.504 66.2491C149.285 66.1545 149.849 66.0913 150.131 66.0282C147.592 65.3655 149.818 66.7225 147.905 66.8803C147.56 66.5016 148.344 65.9335 147.09 65.8704C146.463 65.5548 143.423 67.1012 141.667 66.3754C142.043 66.6594 142.419 66.9434 141.542 67.1643C140.194 67.259 137.905 66.0598 136.714 66.975C136.557 66.9118 136.495 66.8172 136.463 66.7541C135.429 66.975 133.14 67.1328 132.513 67.6377C131.573 65.8073 126.15 68.5213 126.15 66.8487L122.983 66.9434L123.077 66.7856C121.071 66.6594 120.35 67.0696 119.629 67.4799C119.159 67.3537 119.504 67.1959 119.535 67.1328C116.588 66.7856 116.306 66.8487 113.83 67.7008L113.579 67.1643C112.921 67.4799 109.316 66.3122 106.432 66.9434C106.463 66.8803 106.526 66.7856 106.745 66.6909C103.485 67.3221 98.9707 65.1762 97.7794 67.1643L95.7105 67.5746C98.5005 67.7324 95.3029 68.4266 96.4315 68.7738C95.3343 68.9 93.6101 68.1742 94.9581 68.0795L95.1775 68.1742C95.6791 67.1328 91.7292 67.7955 91.7919 67.1012C86.3373 67.1328 81.0081 66.5647 75.8984 66.5016L76.494 67.3221L74.7071 67.259C74.2369 67.0696 74.0802 66.6278 75.3654 66.6594C74.7071 66.186 73.2338 67.0381 73.2024 67.2274C70.6945 66.9118 74.1742 66.2807 73.4218 66.2807L72.3874 66.3438L72.6068 66.4385C71.7604 66.7541 71.6977 67.1328 70.1616 67.0696C69.1898 66.9118 69.6601 66.5647 69.2839 66.5332C69.2839 66.47 69.1585 66.4385 68.6883 66.5016L66.4312 66.4385L67.3403 67.0696C66.3371 67.3852 65.24 67.0381 66.2744 67.7639C64.7384 66.6594 57.9045 67.3537 56.964 67.0065C55.5533 67.4799 54.2054 67.4483 52.4812 67.4168C52.9201 67.543 53.1709 68.2688 51.6975 68.1742C52.2304 66.6909 49.0015 67.543 47.8103 66.47C48.8762 67.1643 43.641 66.6594 45.3025 67.6377C44.0799 67.5115 45.2398 67.0696 44.2993 66.7225C41.3839 67.2905 37.8729 66.3438 34.2365 66.5332C34.1738 66.7225 34.8008 67.0381 34.0171 67.3221L32.0735 66.3754C31.3525 66.47 31.4152 67.5115 30.0985 66.8172C30.2866 66.975 30.5688 67.2274 30.0672 67.2905C22.9825 66.3438 15.6157 68.0795 8.40555 66.2807C9.37735 66.6594 8.71904 66.6909 7.99803 66.7225C8.46825 66.8172 7.99802 67.1959 8.09207 67.4799L5.08264 66.7541C4.54972 67.4799 1.85377 66.7856 1.54028 67.4799L2.48073 67.3537C1.2268 68.1742 4.26758 69.184 4.07949 70.257C5.49016 69.3103 7.80993 71.6456 10.1611 70.2886C10.6626 70.5095 9.72218 70.6357 10.0043 70.8882C10.5999 70.4464 11.3209 70.3517 12.6376 70.541L12.4808 70.6673C16.1799 70.541 17.7787 71.0144 21.948 71.2984L21.6345 70.7619C22.5436 70.8251 22.7317 70.9828 23.1392 71.1406C24.1737 70.3517 20.6314 71.1091 21.5718 70.2254C22.7631 71.2984 27.8728 70.257 28.6879 71.4562C30.0672 71.4562 28.2804 70.8566 29.6597 70.8566L30.0359 71.1722L30.3807 70.7619C31.2898 70.8251 31.7287 71.2353 31.76 71.5193C31.5406 71.4878 31.133 71.5824 30.9136 71.614C32.0735 71.9927 34.2052 71.4878 34.6127 71.614L33.2961 71.4247C37.0579 71.1091 41.6347 71.5509 45.2711 70.8882L44.989 70.6357C47.779 70.1939 47.2147 70.9197 50.2555 70.6988L50.1301 70.7619C50.7257 70.5095 51.5408 70.3832 52.3872 70.4148C51.6035 70.6988 53.8292 70.9828 52.826 71.2984C55.8355 70.7935 54.2994 70.9197 56.3057 70.0045L56.7759 70.4148C57.4656 70.0361 57.4969 69.8468 59.033 69.7521C57.7791 70.0992 60.0048 70.3832 58.5941 70.8566C61.7916 71.7402 63.3277 69.9414 64.8011 71.2669C66.2744 70.1308 62.0424 70.6357 62.8575 70.3832C62.1678 70.0045 64.0801 69.5312 65.0832 69.6574C66.1177 69.689 66.8074 71.1091 69.3779 71.0775C69.1271 71.0775 69.0958 71.1722 68.845 71.1406C69.8168 71.4247 70.7259 70.7619 71.9171 71.2038C72.5754 70.5095 73.4532 71.2353 73.6413 70.3832L71.2902 70.5726C72.6381 70.3517 73.8607 69.3103 76.0864 69.8152C75.9297 70.0045 75.2714 70.2255 74.8012 70.3517C75.4595 70.6041 76.0237 70.1939 76.7134 70.4464C76.5253 71.33 73.8607 70.6357 72.4187 71.2984C73.1084 71.6771 75.1147 70.6673 74.3936 71.614C75.4281 70.4148 76.9329 71.7718 78.657 70.8566L78.5316 71.3931C78.8137 71.2984 79.378 71.0775 79.8796 71.0775L78.9705 71.7718C80.3812 71.2038 81.6664 72.2767 83.0458 71.9611C80.2244 71.9927 82.4188 71.33 81.2276 70.9513C84.7072 70.257 83.2339 72.3083 87.121 72.0558C86.5881 72.1189 85.1461 71.7402 85.9611 71.4878C86.7135 71.5824 87.6853 71.8034 88.1555 72.0874C90.7261 71.9927 87.748 71.5509 88.8452 71.2353C89.7229 71.8665 90.0991 70.9828 91.259 70.7619V71.2984C94.2057 71.6456 92.0427 70.1939 94.676 70.6041L93.5474 71.33L94.9268 71.1406L94.6446 71.7402C96.1493 71.2984 96.6196 71.3931 98.0929 71.5824C97.7481 71.2038 98.281 70.6041 99.5976 70.6041C100.475 70.9197 99.0961 71.1091 100.946 71.046C100.538 71.3931 100.068 71.8034 99.2528 71.2984C99.1588 71.4878 98.8453 71.6456 98.7512 71.8034C99.723 72.1821 101.165 71.898 101.823 71.8665C101.573 71.8349 101.259 71.8034 101.102 71.7402L103.767 71.0144C104.174 71.2038 103.861 71.3615 103.516 71.5193C104.049 71.4562 104.425 71.2038 105.24 71.1722C105.021 71.614 105.084 72.0558 103.955 72.2452L106.494 71.7718C106.651 71.9611 107.811 72.2767 107.466 72.4345C108.877 72.687 110.946 71.5824 112.827 71.9296C112.921 71.8349 113.109 71.7718 113.516 71.7087C115.272 71.8034 116.839 72.3398 118.94 71.7402L120.162 72.4976C121.792 72.3083 118.563 71.5193 121.291 71.2353C123.234 70.9828 122.012 71.898 122.701 72.1189C123.673 71.7402 125.335 70.9197 127.09 71.5509C126.494 71.6771 126.024 71.5824 125.491 71.6456ZM145.68 71.2984C145.303 71.4247 144.52 71.7402 144.238 71.4562C144.676 70.8251 145.021 71.1091 145.68 71.2984ZM176.37 70.0045C176.087 70.1939 175.617 70.0992 175.116 69.8783C175.492 69.8468 175.931 69.8783 176.37 70.0045ZM261.919 66.2807C261.888 66.2807 261.888 66.2807 261.888 66.3122C260.978 66.1229 261.292 66.186 261.919 66.2807ZM263.706 66.5332C263.894 66.47 263.863 66.3754 263.8 66.3122C263.674 66.4385 263.267 66.47 262.797 66.4069C262.953 66.5332 263.173 66.6594 263.706 66.5332ZM69.0644 66.7225L69.4093 66.8487C68.6256 67.0381 68.845 66.8803 69.0644 66.7225Z" fill="#363634"/>
<path d="M172.89 70.7304C172.764 70.6357 172.733 70.541 172.733 70.4464C172.576 70.541 172.576 70.6357 172.89 70.7304Z" fill="#363634"/>
<path d="M112.92 71.898C112.889 71.898 112.889 71.898 112.857 71.898C112.826 71.9293 112.795 71.9606 112.795 71.9919L112.92 71.898Z" fill="#363634"/>
<path d="M235.649 71.046C235.273 70.9828 235.053 70.8566 234.928 70.7619C234.897 70.8882 235.085 71.0144 235.649 71.046Z" fill="#363634"/>
<path d="M273.33 65.618L272.17 65.7442C272.734 65.7126 272.922 65.8389 273.204 65.9335C273.173 65.8073 272.953 65.618 273.33 65.618Z" fill="#363634"/>
<path d="M283.392 68.9315C283.549 68.8684 283.737 68.9315 283.925 68.8684L283.894 68.616C283.173 68.616 282.64 68.8053 283.392 68.9315Z" fill="#363634"/>
<path d="M274.396 67.3852C274.49 67.827 275.211 67.6692 276.026 67.6061C275.963 67.6061 275.932 67.6061 275.869 67.6061C276.12 66.975 275.273 67.1959 274.396 67.3852Z" fill="#363634"/>
<path d="M276.214 67.5746C276.464 67.543 276.715 67.543 276.966 67.5746C277.06 67.3221 276.652 67.5114 276.214 67.5746Z" fill="#363634"/>
<path d="M266.026 66.2176C266.402 66.3438 266.276 65.6495 266.496 65.8389C266.903 65.2708 263.894 66.5331 266.026 66.2176Z" fill="#363634"/>
<path d="M275.054 68.8684L274.771 68.3004L274.301 68.7738L275.054 68.8684Z" fill="#363634"/>
<path d="M268.627 68.4582L269.913 68.616C269.881 68.5213 270.069 68.4582 270.257 68.4266C269.474 68.3951 268.596 68.3004 268.627 68.4582Z" fill="#363634"/>
<path d="M270.289 68.4266C270.696 68.4266 271.104 68.4266 271.323 68.332C271.104 68.332 270.602 68.3635 270.289 68.4266Z" fill="#363634"/>
<path d="M273.267 69.0262L272.891 68.9316L271.982 68.8684L273.267 69.0262Z" fill="#363634"/>
<path d="M254.677 68.3635L253.267 68.5213C253.11 68.7107 253.517 68.8369 254.05 68.7422C254.364 68.616 254.897 68.5529 254.677 68.3635Z" fill="#363634"/>
<path d="M258.942 69.8783C258.565 69.7521 258.534 69.6258 258.314 69.468L258.282 70.1623L258.942 69.8783Z" fill="#363634"/>
<path d="M254.803 70.0361C254.646 70.2255 252.734 70.5726 254.552 70.541C254.709 70.3517 256.119 70.1939 254.803 70.0361Z" fill="#363634"/>
<path d="M233.455 69.1525H233.8L233.769 68.0164L233.455 69.1525Z" fill="#363634"/>
<path d="M214.614 71.8665C216.307 72.1505 215.022 71.1722 216.527 71.5193C216.934 71.2669 215.273 71.2353 215.68 71.0144C214.677 71.2669 214.144 71.1091 214.614 71.8665Z" fill="#363634"/>
<path d="M215.68 70.9828C215.837 70.9513 216.026 70.8882 216.214 70.825C215.931 70.8882 215.774 70.9513 215.68 70.9828Z" fill="#363634"/>
<path d="M3.07634 66.1544L2.0105 65.9335L2.70016 66.3122L3.07634 66.1544Z" fill="#363634"/>
<path d="M1.00724 67.0065L0.756458 66.2807L0.0981445 66.9434C0.348931 66.9118 0.819155 66.8487 1.00724 67.0065Z" fill="#363634"/>
<path d="M148.689 72.7185L148.783 72.5608C148.626 72.3714 148.375 72.3714 147.843 72.3398L148.689 72.7185Z" fill="#363634"/>
<path d="M134.018 72.182L134.27 72.2136L133.799 71.5509L134.018 72.182Z" fill="#363634"/>
<path d="M121.729 73.0341C122.231 73.0657 122.827 72.9079 123.328 72.9394C122.231 73.0341 121.604 72.2136 121.729 73.0341Z" fill="#363634"/>
</svg>
