<svg width="1599" height="1434" viewBox="0 0 1599 1434" fill="none" xmlns="http://www.w3.org/2000/svg">
<path d="M89 306H1599" stroke="#363634" stroke-width="10.9974" stroke-miterlimit="10"/>
<path d="M88.2439 288.991H163.114" stroke="#363634" stroke-width="10.9974" stroke-miterlimit="10"/>
<path d="M126 0L126 280" stroke="#363634" stroke-width="10.9974" stroke-miterlimit="10"/>
<path d="M168.387 397.474L168.382 397.46L168.374 397.447C165.717 393.146 160.231 389.182 151.844 385.819C144.831 382.993 136.034 382.341 132.29 382.199C134.037 371.233 139.244 361.123 147.142 353.366C150.001 351.861 155.79 350.18 162.104 349.37C168.63 348.535 175.714 348.651 180.771 350.895C185.691 353.09 191.245 357.494 195.264 363.41C199.281 369.324 201.759 376.741 200.542 384.967C199.58 391.42 195.079 398.353 189.067 404.028C183.111 409.651 175.693 414.018 168.819 415.449C169.226 411.282 169.282 407.282 169.156 404.086C169.093 402.464 168.982 401.047 168.847 399.92C168.713 398.796 168.553 397.95 168.387 397.474Z" fill="#C3473D" stroke="#363634" stroke-width="0.281985"/>
<path d="M113.705 420.168L113.738 420.16L113.764 420.139C120.161 414.86 125.24 408.144 128.592 400.532L128.592 400.531C130.99 395 131.747 387.502 132.186 383.149C132.209 382.92 132.232 382.7 132.253 382.49C135.974 382.613 144.753 383.26 151.739 386.091L151.739 386.091C160.096 389.457 165.513 393.386 168.126 397.593C168.279 398.038 168.435 398.851 168.568 399.96C168.701 401.078 168.811 402.486 168.875 404.103C169.002 407.337 168.942 411.399 168.519 415.626L168.519 415.626C167.801 422.943 165.979 430.716 162.212 435.594C153.509 446.849 136.373 455.873 118.514 448.859L118.463 448.99L118.514 448.859C105.934 443.921 99.6304 431.106 99.9208 421.059C104.534 421.465 109.181 421.164 113.705 420.168Z" fill="#C3473D" stroke="#363634" stroke-width="0.281985"/>
<path d="M146.992 353.137L146.974 353.146L146.959 353.161C138.998 360.973 133.753 371.161 132.003 382.212C131.123 382.373 130.189 382.826 129.126 383.37C129.006 383.432 128.884 383.495 128.76 383.559C127.74 384.084 126.59 384.676 125.231 385.195C122.188 386.357 118.095 387.151 112.136 385.942C108.195 385.141 104.342 383.113 100.904 380.763C97.4789 378.422 94.4739 375.767 92.213 373.703C91.1037 370.95 90.0803 364.558 90.1196 357.179C90.1645 351.97 90.7616 346.278 92.2714 341.076C93.7816 335.872 96.2017 331.168 99.8849 327.922C110.257 318.784 127.47 316.733 139.954 323.546L139.954 323.547C145.922 326.787 151.003 332.108 154.807 337.183C158.518 342.134 161.003 346.84 161.904 349.127C155.615 349.947 149.877 351.621 146.992 353.137Z" fill="#C3473D" stroke="#363634" stroke-width="0.281985"/>
<path d="M91.9639 373.835L91.9758 373.864L91.9992 373.886C94.2651 375.963 97.291 378.642 100.745 381.003C104.198 383.363 108.087 385.41 112.081 386.214C118.094 387.435 122.242 386.635 125.332 385.455C126.706 384.93 127.87 384.331 128.889 383.806C129.013 383.742 129.135 383.679 129.255 383.618C130.288 383.088 131.16 382.667 131.966 382.502C131.941 382.744 131.915 382.997 131.888 383.261C131.438 387.642 130.684 394.982 128.333 400.404C125.004 407.966 119.962 414.637 113.611 419.885C109.074 420.88 104.412 421.171 99.7869 420.747L99.7858 420.746C85.6554 419.563 72.2088 412.404 66.9375 403.06C58.6901 388.397 64.91 362.953 89.8367 357.336C89.797 364.695 90.8383 371.069 91.9639 373.835Z" fill="#C3473D" stroke="#363634" stroke-width="0.281985"/>
<path d="M92.0943 373.782C90.97 371.019 89.9391 364.587 89.9786 357.174C90.0684 346.738 92.3709 334.354 99.7917 327.812C110.208 318.635 127.485 316.578 140.021 323.419C152.007 329.928 160.405 344.771 162.101 349.241" stroke="#363634" stroke-width="10.9974" stroke-miterlimit="10"/>
<path d="M132.126 382.334C133.854 371.271 139.092 361.068 147.058 353.25C148.557 351.784 150.137 350.404 151.792 349.117" stroke="#363634" stroke-width="10.9974" stroke-miterlimit="10"/>
<path d="M147.058 353.261C149.931 351.743 155.75 350.054 162.086 349.24C168.62 348.405 175.735 348.517 180.829 350.777C190.717 355.189 203.127 368.463 200.681 384.999C198.745 397.991 182.578 412.841 168.659 415.637" stroke="#363634" stroke-width="10.9974" stroke-miterlimit="10"/>
<path d="M132.126 382.334C135.772 382.446 144.698 383.075 151.792 385.95C160.168 389.323 165.621 393.272 168.254 397.521C169.136 398.889 169.737 400.421 170.021 402.026" stroke="#363634" stroke-width="10.9974" stroke-miterlimit="10"/>
<path d="M168.236 397.474C168.236 397.492 168.236 397.51 168.236 397.528C168.879 399.361 169.489 407.168 168.642 415.637C167.923 422.959 166.098 430.766 162.305 435.676C153.577 446.965 136.379 456.03 118.445 448.986C105.74 444 99.4075 431.022 99.7667 420.901" stroke="#363634" stroke-width="10.9974" stroke-miterlimit="10"/>
<path d="M113.675 420.03C109.113 421.034 104.425 421.328 99.774 420.901C85.6147 419.715 72.1163 412.541 66.8146 403.143C58.5066 388.372 64.8068 362.735 89.9788 357.174" stroke="#363634" stroke-width="10.9974" stroke-miterlimit="10"/>
<path d="M88.3948 370.538C89.1132 371.037 90.3991 372.245 92.0944 373.793C96.6238 377.944 104.174 384.489 112.109 386.087C124.08 388.517 128.592 382.898 132.126 382.341" stroke="#363634" stroke-width="10.9974" stroke-miterlimit="10"/>
<path d="M132.126 382.334C131.684 386.525 131.002 394.606 128.462 400.464C125.119 408.057 120.054 414.754 113.674 420.019C111.997 421.426 110.239 422.732 108.409 423.932" stroke="#363634" stroke-width="10.9974" stroke-miterlimit="10"/>
<path d="M37.4723 354.129C20.091 354.129 6 339.55 6 321.586C6 303.622 20.091 289.042 37.4723 289.042H88.2439" stroke="#363634" stroke-width="10.9974" stroke-miterlimit="10"/>
<path d="M19.1787 386.673C36.5599 386.673 50.651 372.097 50.651 354.129C50.651 336.162 36.5599 321.586 19.1787 321.586" stroke="#363634" stroke-width="10.9974" stroke-miterlimit="10"/>
<path d="M37.4723 355.261C20.091 355.261 6 369.841 6 387.823C6 405.805 20.091 420.366 37.4723 420.366L97.5218 421.238" stroke="#363634" stroke-width="10.9974" stroke-miterlimit="10"/>
<path d="M126 479L126 1434" stroke="#363634" stroke-width="11" stroke-miterlimit="10"/>
</svg>
